{"title":"Yasujiro Ozu - Tokyo monogatari [Tokyo Story] (1953)","uid":6242445,"size":2250313186,"categoryP":"video","categoryS":"movies","magnet":"?xt=urn:btih:d3a23b0a55b09b575d1beede40f52517fc53751a&amp;dn=Yasujiro+Ozu+-+Tokyo+monogatari+%5BTokyo+Story%5D+%281953%29&amp;tr=udp%3A%2F%2Ftracker.openbittorrent.com%3A80&amp;tr=udp%3A%2F%2Fopen.demonii.com%3A1337&amp;tr=udp%3A%2F%2Ftracker.coppersurfer.tk%3A6969&amp;tr=udp%3A%2F%2Fexodus.desync.com%3A6969","seeders":22,"leechers":0,"uploader":"mfccorrea","files":4,"time":1300118558,"description":"As with much of director Yasujiro Ozu's work, a plot summary of this film does not do justice to the emotional power that Ozu lends to this sad, understated tale. An elderly couple, Shukichi (Chishu Ryu) and Tomi Hirayama (Chieko Higashiyama), leaves their small coastal village in southern Japan to visit their married children in Tokyo. Their eldest son, Koichi (So Yamamura), a doctor running a clinic in a working-class part of town, is too busy to show them around town, and their eldest daughter is occupied with her beauty salon. Only their widowed daughter-in-law, Noriko, played memorably by Setsuko Hara, is willing to take time off work to show the couple the sights of Tokyo. The older children arrange for their parents to visit Atami Hot Springs, but the unimpressed couple soon returns to Tokyo. Tomi stays with her daughter-in-law while Shukichi goes out drinking with some of his buddies, and the bunch complains about their vague sense of disappointment toward their children. Later, he stumbles into his daughter Shige's (Haruko Sugimura ) house late at night. On the way back to their village, tragedy strikes. The callous inattention that son and daughter paid to their parents becomes unamendable. Shige and Koichi quickly return to their busy lives in Tokyo after the funeral, as Noriko and youngest daughter Kyoko (Kyoko Kagawa) remain. \n\n   General\n      Complete name : D:\\BT Uploads - para enviar\\Tokyo Story\\Tokyo Story.mkv\n      Format : Matroska\n      File size : 2.10 GiB\n      Duration : 2h 15mn\n      Overall bit rate : 2 208 Kbps\n      Movie name : Tokyo.Story.1953.720p.BRRip.x264-x0r\n      Encoded date : UTC 2011-03-10 00:45:22\n      Writing application : mkvmerge v2.9.7 ('Tenderness') built on Jul  5 2009 13:26:28\n      Writing library : libebml v0.7.8 + libmatroska v0.8.1\n   Video #1\n      ID : 1\n      Format : AVC\n      Format/Info : Advanced Video Codec\n      Format profile : &lt;a class=&quot;__cf_email__&quot; href=&quot;/cdn-cgi/l/email-protection&quot; data-cfemail=&quot;236b4a444b636f170d12&quot;&gt;[email&amp;#160;protected]&lt;/a&gt;&lt;script cf-hash='f9e31' type=&quot;text/javascript&quot;&gt;\n/* &lt;![CDATA[ */!function(){try{var t=&quot;currentScript&quot;in document?document.currentScript:function(){for(var t=document.getElementsByTagName(&quot;script&quot;),e=t.length;e--;)if(t[e].getAttribute(&quot;cf-hash&quot;))return t[e]}();if(t&amp;&amp;t.previousSibling){var e,r,n,i,c=t.previousSibling,a=c.getAttribute(&quot;data-cfemail&quot;);if(a){for(e=&quot;&quot;,r=parseInt(a.substr(0,2),16),n=2;a.length-n;n+=2)i=parseInt(a.substr(n,2),16)^r,e+=String.fromCharCode(i);e=document.createTextNode(e),c.parentNode.replaceChild(e,c)}}}catch(u){}}();/* ]]&gt; */&lt;/script&gt;\n      Format settings, CABAC : Yes\n      Format settings, ReFrames : 5 frames\n      Muxing mode : Container profile=&lt;a class=&quot;__cf_email__&quot; href=&quot;/cdn-cgi/l/email-protection&quot; data-cfemail=&quot;2a7f444144455d446a1e041b&quot;&gt;[email&amp;#160;protected]&lt;/a&gt;&lt;script cf-hash='f9e31' type=&quot;text/javascript&quot;&gt;\n/* &lt;![CDATA[ */!function(){try{var t=&quot;currentScript&quot;in document?document.currentScript:function(){for(var t=document.getElementsByTagName(&quot;script&quot;),e=t.length;e--;)if(t[e].getAttribute(&quot;cf-hash&quot;))return t[e]}();if(t&amp;&amp;t.previousSibling){var e,r,n,i,c=t.previousSibling,a=c.getAttribute(&quot;data-cfemail&quot;);if(a){for(e=&quot;&quot;,r=parseInt(a.substr(0,2),16),n=2;a.length-n;n+=2)i=parseInt(a.substr(n,2),16)^r,e+=String.fromCharCode(i);e=document.createTextNode(e),c.parentNode.replaceChild(e,c)}}}catch(u){}}();/* ]]&gt; */&lt;/script&gt;\n      Codec ID : V_MPEG4/ISO/AVC\n      Duration : 2h 15mn\n      Bit rate : 1 908 Kbps\n      Nominal bit rate : 1 950 Kbps\n      Width : 960 pixels\n      Height : 720 pixels\n      Display aspect ratio : 4:3\n      Frame rate mode : Variable\n      Frame rate : 23.976 fps\n      Resolution : 24 bits\n      Colorimetry : 4:2:0\n      Scan type : Progressive\n      Bits/(Pixel*Frame) : 0.115\n      Stream size : 1.81 GiB (86%)\n      Writing library : x264 core 112     \n   Audio #2\n      ID : 2\n      Format : AC-3\n      Format/Info : Audio Coding 3\n      Codec ID : A_AC3\n      Duration : 2h 15mn\n      Bit rate mode : Constant\n      Bit rate : 256 Kbps\n      Channel(s) : 2 channels\n      Channel positions : L R\n      Sampling rate : 48.0 KHz\n      Stream size : 249 MiB (12%)\n      Language : Japanese\n   Text #3\n      ID : 3\n      Format : UTF-8\n      Codec ID : S_TEXT/UTF8\n      Codec ID/Info : UTF-8 Plain Text\n      Language : English\n\n &lt;a href=&quot;\nhttp://www.imdb.com/title/tt0046438/&quot; rel=&quot;nofollow&quot; target=&quot;_NEW&quot;&gt;\nhttp://www.imdb.com/title/tt0046438/&lt;/a&gt;\n\nJapanese audio: English (muxed in), Spanish, French, and Portuguese subtitles\n\nYasujiro Ozu - Tokyo monogatari [Tokyo Story] (1953)","torrent":{"xt":"urn:btih:d3a23b0a55b09b575d1beede40f52517fc53751a","amp;dn":"Yasujiro+Ozu+-+Tokyo+monogatari+%5BTokyo+Story%5D+%281953%29","amp;tr":["udp%3A%2F%2Ftracker.openbittorrent.com%3A80","udp%3A%2F%2Fopen.demonii.com%3A1337","udp%3A%2F%2Ftracker.coppersurfer.tk%3A6969","udp%3A%2F%2Fexodus.desync.com%3A6969"],"infoHash":"d3a23b0a55b09b575d1beede40f52517fc53751a","infoHashBuffer":{"type":"Buffer","data":[211,162,59,10,85,176,155,87,93,27,238,222,64,245,37,23,252,83,117,26]},"announce":[],"urlList":[]}}